<svg version="1.1" id="Layer_1" xmlns="http://www.w3.org/2000/svg" xmlns:xlink="http://www.w3.org/1999/xlink" x="0px" y="0px"
	 width="100%" viewBox="0 0 1024 1024" enable-background="new 0 0 1024 1024" xml:space="preserve">
<path fill="#000000" opacity="1.000000" stroke="none" 
	d="
M201.903931,515.377686 
	C196.100128,517.141296 190.563873,516.190979 185.097549,516.297302 
	C176.934326,516.455994 168.762772,516.205505 160.600540,516.387878 
	C157.014740,516.467896 155.580490,515.368713 155.598145,511.582764 
	C155.717819,485.917542 155.708054,460.251282 155.604553,434.585876 
	C155.589798,430.932007 156.840866,429.576874 160.528992,429.628235 
	C171.859756,429.786072 183.201477,429.436646 194.524734,429.768799 
	C203.780533,430.040314 211.731354,433.764740 215.431946,442.638428 
	C219.044312,451.300568 219.161179,460.220825 212.366547,467.928650 
	C210.429138,470.126404 208.868591,472.298065 212.059982,474.595184 
	C225.357391,484.166229 223.830246,509.246735 201.903931,515.377686 
M180.690872,481.239960 
	C175.661301,480.444122 173.669327,482.481171 174.275055,487.598206 
	C174.644318,490.717651 174.339996,493.915924 174.354187,497.078705 
	C174.361130,498.629089 174.463165,500.437775 176.431473,500.467651 
	C183.038208,500.567993 189.812759,501.833679 196.119263,498.898529 
	C200.346039,496.931305 202.463333,493.231995 201.479462,488.672028 
	C200.521744,484.233459 197.444260,481.475006 192.623260,481.334259 
	C188.964615,481.227417 185.301849,481.261658 180.690872,481.239960 
M195.220001,448.145782 
	C189.456787,444.979187 183.225739,446.617554 177.184174,446.468109 
	C174.830719,446.409943 174.297043,448.250610 174.340454,450.291260 
	C174.708954,467.609863 171.431442,464.278107 187.982300,464.707703 
	C188.312988,464.716309 188.644440,464.694763 188.975555,464.687988 
	C193.156937,464.602417 196.631866,462.829071 198.095108,458.987335 
	C199.477097,455.358978 199.359451,451.448517 195.220001,448.145782 
z"/>
<path fill="#000000" opacity="1.000000" stroke="none" 
	d="
M591.706848,464.124786 
	C597.099854,443.494019 610.341187,431.138062 630.711853,428.946198 
	C649.454163,426.929535 665.483704,432.748779 675.708557,449.484314 
	C684.839172,464.428925 685.112000,480.270874 676.657654,495.562256 
	C668.348389,510.591156 655.023315,517.698120 637.769531,518.421692 
	C611.926819,519.505310 590.341797,499.261383 590.755859,472.463531 
	C590.796692,469.821991 591.356995,467.188446 591.706848,464.124786 
M619.879272,451.356140 
	C612.132141,458.180115 609.472778,466.910004 610.356689,476.935547 
	C611.630127,491.380188 626.836853,503.811523 640.328674,501.471466 
	C651.390564,499.552856 660.429749,491.352051 662.624695,481.243256 
	C665.440979,468.272919 661.210876,456.697449 651.245056,450.103516 
	C641.361023,443.563721 630.953857,443.843567 619.879272,451.356140 
z"/>
<path fill="#000000" opacity="1.000000" stroke="none" 
	d="
M721.984192,434.855774 
	C740.519226,425.521454 758.363770,425.801147 775.047729,437.922058 
	C788.300537,447.550262 792.373291,461.306854 791.754883,477.388672 
	C791.013855,496.661621 774.504517,514.712585 753.876648,517.852844 
	C728.436096,521.725708 704.764038,505.885590 701.587891,481.135132 
	C699.083252,461.617767 705.326904,446.201477 721.984192,434.855774 
M772.716614,478.023895 
	C772.690125,475.032715 772.858154,472.024811 772.603333,469.053223 
	C771.532959,456.571777 760.132141,445.537354 747.568176,445.421021 
	C733.853699,445.294006 720.021301,453.485413 719.740906,473.555908 
	C719.537415,488.120483 728.299377,500.675446 746.203674,501.578827 
	C758.904785,502.219696 769.274902,492.902588 772.716614,478.023895 
z"/>
<path fill="#000000" opacity="1.000000" stroke="none" 
	d="
M887.818970,478.449707 
	C885.991638,501.147064 866.258789,517.387207 844.915649,516.417603 
	C835.605896,515.994690 826.256409,516.152039 816.935059,516.410522 
	C812.694641,516.528198 811.567871,514.945129 811.589905,510.915527 
	C811.728516,485.595520 811.646118,460.274384 811.682495,434.953674 
	C811.685669,432.740265 811.084229,429.769897 814.673645,429.787628 
	C827.483093,429.850952 840.470459,428.145935 853.065063,430.425018 
	C876.684021,434.698944 890.372559,454.094879 887.818970,478.449707 
M830.338318,467.500305 
	C830.340698,476.817230 830.476624,486.137024 830.276672,495.449615 
	C830.201477,498.950684 831.760681,500.450989 834.884705,500.455444 
	C838.365173,500.460449 841.843933,500.033875 845.327332,499.885712 
	C856.094543,499.427917 863.659607,494.202728 867.454285,484.209564 
	C871.605225,473.278412 870.400574,462.924591 862.221863,454.063171 
	C854.145996,445.313324 843.466614,445.970276 832.930908,446.463715 
	C830.416016,446.581512 830.349365,448.628479 830.346802,450.528839 
	C830.339600,455.852783 830.340820,461.176727 830.338318,467.500305 
z"/>
<path fill="#000000" opacity="1.000000" stroke="none" 
	d="
M380.325134,490.063354 
	C380.532104,499.819519 378.323181,499.972534 389.736633,500.037445 
	C400.058472,500.096130 410.379303,500.329895 420.701141,500.384644 
	C423.215118,500.397980 424.151367,501.354919 424.372192,503.890289 
	C425.457275,516.349304 425.521423,516.342285 413.073975,516.337097 
	C397.743774,516.330750 382.412354,516.219788 367.084198,516.394470 
	C363.030731,516.440613 361.554321,515.218750 361.580597,511.019470 
	C361.739044,485.692291 361.741882,460.363220 361.601868,435.035858 
	C361.578888,430.876495 363.009888,429.578888 367.087311,429.617706 
	C384.415527,429.782562 401.747406,429.796143 419.075165,429.607635 
	C423.316040,429.561493 424.518219,431.129700 424.407654,435.148163 
	C424.044312,448.353241 426.048340,446.137878 413.359528,446.324097 
	C404.196716,446.458618 395.027405,446.485352 385.866852,446.288116 
	C381.886505,446.202454 380.123474,447.343018 380.248749,451.649048 
	C380.697662,467.077026 378.076569,464.434479 393.079773,464.682800 
	C400.242981,464.801361 407.410980,464.775238 414.574432,464.662628 
	C417.743378,464.612823 419.117493,465.841217 419.073578,469.069977 
	C418.875488,483.630219 420.441010,481.113129 407.398193,481.276672 
	C401.067139,481.356049 394.734283,481.290619 388.402252,481.295990 
	C380.304901,481.302887 380.304901,481.305206 380.325134,490.063354 
z"/>
<path fill="#000000" opacity="1.000000" stroke="none" 
	d="
M490.603088,451.367310 
	C484.657227,447.835388 478.851196,444.970245 472.042877,445.379486 
	C468.025055,445.621002 464.287689,446.873566 462.680603,450.882141 
	C461.146393,454.708893 462.840424,457.860138 466.417267,459.574310 
	C472.112579,462.303711 477.987244,464.655945 483.741089,467.266785 
	C500.296387,474.778870 501.550140,483.688751 500.089355,497.190094 
	C498.926819,507.934937 487.843414,516.991638 475.181244,518.186035 
	C463.605591,519.277954 452.661407,517.211548 442.817139,510.546295 
	C440.338837,508.868347 439.357574,507.432739 441.277649,504.553619 
	C443.472656,501.262207 444.943848,497.496246 447.793060,494.159393 
	C452.808319,496.766327 457.635437,499.731110 463.183624,500.997101 
	C467.834503,502.058289 472.392914,502.323364 476.758484,499.915375 
	C482.750854,496.610077 483.361877,489.915466 477.982758,485.695862 
	C474.254181,482.770996 469.713562,481.506195 465.418304,479.715454 
	C457.887024,476.575623 449.955902,473.634674 446.004517,465.767151 
	C437.383575,448.602051 447.101257,431.109558 466.539459,428.855530 
	C476.862030,427.658539 486.687195,429.520691 495.769989,435.048004 
	C499.338989,437.219940 500.703186,439.105713 497.843781,442.799591 
	C496.439728,444.613373 495.716614,446.938721 494.470825,448.896027 
	C493.669434,450.155121 493.303253,452.297058 490.603088,451.367310 
z"/>
<path fill="#000000" opacity="1.000000" stroke="none" 
	d="
M555.018555,482.321136 
	C552.357117,482.320679 550.191345,482.314453 548.025635,482.320801 
	C541.371033,482.340302 540.668213,482.847565 540.449219,489.698090 
	C540.215088,497.021240 540.236267,504.358795 540.385071,511.685211 
	C540.454712,515.109558 539.248413,516.576233 535.760498,516.368652 
	C532.606079,516.180908 529.422180,516.157104 526.269653,516.354126 
	C522.655945,516.579895 521.704834,514.829285 521.711731,511.558563 
	C521.766052,485.736938 521.762939,459.914978 521.674866,434.093506 
	C521.663879,430.876099 522.842102,429.639740 526.051331,429.656433 
	C542.044006,429.739594 558.037292,429.710144 574.030396,429.692078 
	C576.811096,429.688965 578.444519,430.308197 577.868896,433.754639 
	C577.438721,436.330780 577.783081,439.050629 577.904663,441.700867 
	C578.057617,445.032288 576.762268,446.466675 573.231140,446.399292 
	C564.071838,446.224396 554.903564,446.489807 545.745544,446.283569 
	C541.616211,446.190552 540.229004,447.668213 540.264648,451.806488 
	C540.404602,468.060425 539.628296,465.480072 553.807434,465.657654 
	C558.804504,465.720245 563.805664,465.781433 568.799805,465.649902 
	C571.889771,465.568573 573.390564,466.574829 573.350586,469.909424 
	C573.169250,485.025970 574.909119,481.954620 562.011353,482.309357 
	C559.847229,482.368896 557.680115,482.319946 555.018555,482.321136 
z"/>
<path fill="#000000" opacity="1.000000" stroke="none" 
	d="
M313.940247,516.339966 
	C301.530334,516.080322 302.821686,518.220703 302.755493,505.786713 
	C302.663300,488.462067 302.730225,471.136627 302.694092,453.811584 
	C302.678955,446.541077 302.439819,446.346680 294.967987,446.335175 
	C292.135986,446.330811 289.303986,446.348328 286.472015,446.341675 
	C285.473145,446.339294 284.288177,446.638611 283.504974,446.214783 
	C277.313934,442.864441 282.121185,436.963287 280.505188,432.440491 
	C279.582764,429.858917 282.178589,429.709534 284.029236,429.707855 
	C302.687042,429.690979 321.344910,429.730011 340.002594,429.682373 
	C342.878937,429.675018 344.309967,430.687469 344.291412,433.732910 
	C344.196747,449.260406 345.847748,446.008575 332.638336,446.325562 
	C321.034851,446.604004 322.108490,444.497559 322.027191,457.082672 
	C321.916321,474.239746 321.973389,491.398102 321.997620,508.555847 
	C322.008545,516.294739 322.051422,516.294678 313.940247,516.339966 
z"/>
<path fill="#000000" opacity="1.000000" stroke="none" 
	d="
M241.825409,432.270813 
	C243.420273,428.406250 246.507034,429.750183 248.909225,429.763397 
	C262.055878,429.835724 260.235870,427.883789 260.289215,441.057373 
	C260.382294,464.049133 260.206573,487.042419 260.404297,510.032837 
	C260.443787,514.623352 259.418518,516.529907 254.387589,516.459778 
	C241.733795,516.283203 241.714828,516.510498 241.717499,503.717346 
	C241.722427,480.059204 241.747864,456.401093 241.825409,432.270813 
z"/>
<path fill="#000000" opacity="1.000000" stroke="none" 
	d="
M281.928894,570.679504 
	C284.245789,570.725830 286.082703,570.682129 287.901154,570.844727 
	C289.823181,571.016724 290.205597,572.433167 290.190399,574.083069 
	C290.175049,575.749146 289.729889,577.068298 287.784363,577.204590 
	C286.623871,577.285950 285.457611,577.316711 284.293945,577.316833 
	C244.518677,577.321411 204.743393,577.320435 164.968124,577.314026 
	C163.804611,577.313843 162.638306,577.283875 161.478195,577.200134 
	C159.624664,577.066528 158.929321,575.881165 158.861511,574.175964 
	C158.784271,572.234497 159.522278,570.915344 161.619415,570.791626 
	C163.278732,570.693726 164.945129,570.688782 166.608383,570.688477 
	C204.885849,570.681885 243.163300,570.681702 281.928894,570.679504 
z"/>
<path fill="#000000" opacity="1.000000" stroke="none" 
	d="
M826.000122,570.677612 
	C843.469910,570.679138 860.439697,570.677856 877.409485,570.690063 
	C878.904663,570.691162 880.408752,570.695740 881.892761,570.850891 
	C883.805420,571.050964 884.194153,572.445435 884.194641,574.093201 
	C884.195190,575.766113 883.756653,577.075989 881.802246,577.203186 
	C880.641541,577.278687 879.476196,577.314453 878.312927,577.314575 
	C838.716736,577.319214 799.120544,577.318420 759.524353,577.311218 
	C758.361267,577.310974 757.194702,577.275940 756.035828,577.182495 
	C754.031067,577.020996 753.777100,575.587219 753.765930,573.973511 
	C753.754456,572.306580 754.187683,570.966736 756.129089,570.825928 
	C757.620056,570.717896 759.119690,570.693542 760.615479,570.692810 
	C782.243652,570.682007 803.871887,570.681458 826.000122,570.677612 
z"/>
<path fill="#000000" opacity="1.000000" stroke="none" 
	d="
M427.540588,591.787842 
	C419.200897,587.092712 416.086304,579.022583 418.800568,569.877930 
	C421.393982,561.140381 428.373871,556.947327 439.097656,557.684692 
	C446.536316,558.196167 452.891785,564.866821 454.055481,573.384338 
	C455.113586,581.129089 449.953796,589.807129 442.486694,592.485962 
	C437.607300,594.236511 432.689667,593.948181 427.540588,591.787842 
M432.658966,565.020508 
	C428.236633,567.151001 425.480896,570.624390 425.722382,575.563660 
	C425.927673,579.761963 427.209900,583.807556 431.668610,585.710876 
	C435.751892,587.453979 439.514404,586.766296 442.693115,583.748230 
	C446.049072,580.561951 447.135925,574.329529 444.891663,570.392151 
	C442.386169,565.996460 438.668793,563.581665 432.658966,565.020508 
z"/>
<path fill="#000000" opacity="1.000000" stroke="none" 
	d="
M383.381439,593.108154 
	C375.693237,590.379089 371.443329,585.146667 370.787903,577.500671 
	C370.169403,570.285156 372.315857,564.033142 378.909760,559.950745 
	C385.176697,556.070801 394.228455,556.497742 399.970062,561.057678 
	C406.007629,565.852539 408.146149,573.967468 405.435883,581.797913 
	C402.839783,589.298584 396.801178,593.570007 388.744476,593.538574 
	C387.084351,593.532104 385.424988,593.330750 383.381439,593.108154 
M394.217651,584.848633 
	C396.145081,583.396606 397.452728,581.458984 398.129578,579.197754 
	C399.458801,574.757080 399.042572,570.589417 395.354340,567.338257 
	C392.463898,564.790405 389.165619,563.433899 385.275024,564.958801 
	C380.929108,566.662109 378.636200,570.108521 378.446564,574.540344 
	C378.078308,583.147583 385.775879,589.781555 394.217651,584.848633 
z"/>
<path fill="#000000" opacity="1.000000" stroke="none" 
	d="
M596.672363,575.057251 
	C597.433411,562.838379 604.214355,557.019714 616.516418,557.583618 
	C626.012268,558.018860 632.415710,565.631470 632.296875,576.343811 
	C632.190613,585.921570 624.340942,593.728027 614.757141,593.787109 
	C604.434082,593.850708 596.949158,586.283752 596.672363,575.057251 
M616.005615,586.552856 
	C617.363708,585.940491 618.852539,585.516846 620.056641,584.682251 
	C624.574463,581.550720 625.879822,575.580505 623.315735,570.423218 
	C621.144043,566.055054 615.863159,563.485657 611.688171,564.765869 
	C606.716919,566.290283 603.492859,571.952637 604.418640,577.533264 
	C605.326965,583.008606 608.946350,586.048584 616.005615,586.552856 
z"/>
<path fill="#000000" opacity="1.000000" stroke="none" 
	d="
M666.981689,593.258789 
	C663.559814,593.713745 661.994629,591.829956 660.647522,589.594543 
	C660.217468,588.881104 659.892151,588.072327 659.341003,587.469910 
	C657.403381,585.352051 656.484741,581.011597 653.176331,581.778748 
	C649.623596,582.602539 651.686707,586.635681 651.389648,589.221497 
	C651.102844,591.718079 650.621643,593.270508 647.664856,593.325745 
	C644.499756,593.384888 643.649475,591.864075 643.671021,589.042236 
	C643.739563,580.043030 643.683716,571.042908 643.712402,562.043335 
	C643.718262,560.201660 643.676514,557.980591 646.207214,557.908630 
	C651.335938,557.762695 656.534851,556.902466 661.576477,558.571472 
	C668.732239,560.940369 671.865723,567.922729 667.456543,573.994995 
	C663.650208,579.237000 664.598999,582.921509 668.295593,587.148621 
	C669.472839,588.494812 670.562744,590.046814 670.789062,592.003845 
	C670.145935,593.709595 668.590637,593.012207 666.981689,593.258789 
M653.821899,565.236633 
	C649.801819,566.592102 651.085144,569.702271 652.007141,572.091064 
	C652.965637,574.574341 655.289734,573.498291 657.130371,572.841858 
	C659.088684,572.143555 660.675415,571.194946 660.199219,568.600342 
	C659.591003,565.286926 657.152649,565.202148 653.821899,565.236633 
z"/>
<path fill="#000000" opacity="1.000000" stroke="none" 
	d="
M465.713379,563.157593 
	C465.330841,559.041138 466.919373,557.426392 470.599518,557.699036 
	C474.401703,557.980774 478.242859,557.261292 482.029358,558.239563 
	C491.692719,560.736511 495.969757,566.908142 495.316071,577.521240 
	C494.799377,585.910645 488.298920,592.320129 479.363556,593.250610 
	C465.795288,594.663452 465.726440,594.600708 465.726013,581.126404 
	C465.725830,575.297546 465.716644,569.468628 465.713379,563.157593 
M487.683502,575.446472 
	C487.223755,569.436279 484.628113,566.021423 480.024780,565.370117 
	C474.923767,564.648315 473.372467,565.951965 473.317566,571.088074 
	C473.280243,574.575562 473.390381,578.066223 473.284119,581.550842 
	C473.191956,584.573303 474.662994,585.645569 477.515045,585.719849 
	C482.947113,585.861206 486.264099,582.848389 487.683502,575.446472 
z"/>
<path fill="#000000" opacity="1.000000" stroke="none" 
	d="
M682.708496,575.000732 
	C682.711426,570.336975 682.772461,566.171448 682.699524,562.008301 
	C682.649963,559.179016 683.652527,557.634094 686.736816,557.688904 
	C692.232361,557.786682 697.731323,557.775757 703.227661,557.708557 
	C705.925354,557.675598 707.208923,558.803528 707.235107,561.543945 
	C707.262878,564.450378 705.601196,565.268738 703.088928,565.270752 
	C699.102356,565.273987 695.102356,565.085205 690.917969,566.017395 
	C689.493774,569.870667 690.373413,571.986206 694.980530,571.677979 
	C696.972778,571.544739 698.978516,571.623108 700.973816,571.521179 
	C703.332825,571.400696 704.267090,572.518005 704.259033,574.808716 
	C704.251160,577.036377 703.384644,578.270935 701.046753,578.270813 
	C699.048096,578.270752 697.049561,578.332520 695.050842,578.342346 
	C692.595581,578.354431 690.342773,578.396606 690.304749,581.881042 
	C690.264404,585.577148 692.591980,585.783875 695.288635,585.758850 
	C697.953613,585.734070 700.620605,585.807373 703.283875,585.735291 
	C705.937134,585.663574 707.274902,586.687683 707.283081,589.518799 
	C707.291382,592.390076 705.849609,593.320557 703.252380,593.298828 
	C697.755493,593.252808 692.257019,593.196533 686.761414,593.283813 
	C683.698425,593.332458 682.654358,591.858704 682.707947,588.992859 
	C682.791931,584.496826 682.717102,579.997803 682.708496,575.000732 
z"/>
<path fill="#000000" opacity="1.000000" stroke="none" 
	d="
M530.047791,562.449829 
	C534.960815,556.814026 544.576477,555.502747 550.231201,559.460693 
	C554.280640,562.294983 550.937744,564.475220 549.596436,567.067749 
	C547.209961,566.262512 545.033936,565.536377 542.863708,564.793274 
	C541.086792,564.184998 539.596130,564.237122 538.801331,566.311462 
	C537.996582,568.411499 538.625977,569.891113 540.657532,570.753906 
	C542.491272,571.532715 544.365906,572.214661 546.207947,572.974854 
	C550.777588,574.860657 553.648865,577.975098 553.291687,583.227905 
	C552.958923,588.121887 549.256470,592.188416 544.264099,593.254761 
	C539.350281,594.304321 534.693970,593.480164 530.239685,591.244568 
	C528.291382,590.266724 526.655029,589.095154 528.074097,586.642212 
	C529.346985,584.441956 530.945374,582.949158 533.725342,584.704834 
	C536.012329,586.149109 538.507202,587.130615 541.295288,586.475708 
	C542.798706,586.122559 544.179260,585.405334 544.469849,583.692871 
	C544.759338,581.986450 543.824158,580.752319 542.371277,580.095520 
	C540.563843,579.278564 538.650513,578.694458 536.778381,578.022522 
	C529.092224,575.263916 526.985291,570.635498 530.047791,562.449829 
z"/>
<path fill="#000000" opacity="1.000000" stroke="none" 
	d="
M356.635742,572.001587 
	C359.493286,572.732849 359.430969,574.639099 359.109680,576.474243 
	C358.759277,578.475769 357.003143,578.224670 355.539154,578.322021 
	C355.207977,578.344055 354.874237,578.325256 354.542572,578.342407 
	C346.355682,578.765503 346.422638,578.767334 346.243378,586.849792 
	C346.186035,589.434265 347.337860,592.872559 342.797394,593.192139 
	C340.191132,593.375610 338.669983,592.659546 338.682983,589.711121 
	C338.723969,580.406860 338.681549,571.102051 338.639832,561.797607 
	C338.628235,559.204102 339.622864,557.721313 342.431244,557.745422 
	C347.747559,557.791077 353.064697,557.766724 358.381348,557.746277 
	C360.805176,557.737000 362.110870,558.790161 362.089752,561.324463 
	C362.069977,563.693298 361.077179,565.148376 358.580231,565.201416 
	C355.590881,565.264954 352.600006,565.284119 349.609894,565.275269 
	C347.347412,565.268555 346.299683,566.272583 346.312286,568.603760 
	C346.325165,570.980591 347.523346,571.863159 349.710846,571.868896 
	C351.869934,571.874512 354.028961,571.913208 356.635742,572.001587 
z"/>
<path fill="#000000" opacity="1.000000" stroke="none" 
	d="
M561.895508,558.388733 
	C569.706360,557.230652 577.193359,557.915771 584.665771,557.748718 
	C587.145081,557.693359 588.277832,558.767639 588.301208,561.319580 
	C588.323242,563.730469 587.521484,565.233337 584.959412,565.215210 
	C579.127991,565.173889 577.750610,568.402527 578.134888,573.620056 
	C578.500549,578.585266 578.205383,583.597717 578.239502,588.589172 
	C578.256836,591.129333 577.966003,593.188354 574.614380,593.299927 
	C570.915833,593.422913 570.678284,591.165466 570.691223,588.436890 
	C570.720459,582.280762 570.605042,576.122803 570.718445,569.968689 
	C570.774231,566.942444 569.885620,565.074890 566.528137,565.316284 
	C561.362854,565.687622 560.893433,562.592407 561.895508,558.388733 
z"/>
</svg>